<svg xmlns="http://www.w3.org/2000/svg" width="1200" height="1176" viewBox="0 0 1200 1176" font-family="'SF Pro Display', 'Inter', system-ui, -apple-system, 'Segoe UI', sans-serif">
  <defs>
    <linearGradient id="heroGrad" x1="0" y1="0" x2="1" y2="0">
      <stop offset="0%" stop-color="#0a0a1a"/>
      <stop offset="100%" stop-color="#1a237e"/>
    </linearGradient>
    <linearGradient id="accentGrad" x1="0" y1="0" x2="1" y2="0">
      <stop offset="0%" stop-color="#536DFE"/>
      <stop offset="100%" stop-color="#7C4DFF"/>
    </linearGradient>
    <linearGradient id="sunGrad" x1="0" y1="0" x2="1" y2="0">
      <stop offset="0%" stop-color="#FF6D00"/>
      <stop offset="100%" stop-color="#FFAB00"/>
    </linearGradient>
    <linearGradient id="warmGrad" x1="0" y1="0" x2="1" y2="0">
      <stop offset="0%" stop-color="#FF6D00"/>
      <stop offset="100%" stop-color="#FF1744"/>
    </linearGradient>
    <linearGradient id="dangerGrad" x1="0" y1="0" x2="1" y2="0">
      <stop offset="0%" stop-color="#FF1744"/>
      <stop offset="100%" stop-color="#FF5252"/>
    </linearGradient>
    <linearGradient id="greenGrad" x1="0" y1="0" x2="1" y2="0">
      <stop offset="0%" stop-color="#00C853"/>
      <stop offset="100%" stop-color="#69F0AE"/>
    </linearGradient>
    <linearGradient id="peakGrad" x1="0" y1="0" x2="1" y2="0">
      <stop offset="0%" stop-color="#1a237e"/>
      <stop offset="100%" stop-color="#4A148C"/>
    </linearGradient>
    <linearGradient id="progressGrad" x1="0" y1="0" x2="1" y2="0">
      <stop offset="0%" stop-color="#536DFE"/>
      <stop offset="50%" stop-color="#00E5FF"/>
      <stop offset="100%" stop-color="#69F0AE"/>
    </linearGradient>
    <linearGradient id="tealGrad" x1="0" y1="0" x2="1" y2="0">
      <stop offset="0%" stop-color="#00B0FF"/>
      <stop offset="100%" stop-color="#00E5FF"/>
    </linearGradient>
    <linearGradient id="keyInsightBg" x1="0" y1="0" x2="0" y2="1">
      <stop offset="0%" stop-color="#FFF3E0"/>
      <stop offset="100%" stop-color="#FFE0B2"/>
    </linearGradient>
    <filter id="elevation1" x="-4%" y="-4%" width="108%" height="112%">
      <feDropShadow dx="0" dy="1" stdDeviation="3" flood-color="rgba(0,0,0,0.07)"/>
      <feDropShadow dx="0" dy="4" stdDeviation="8" flood-color="rgba(0,0,0,0.05)"/>
    </filter>
    <filter id="elevation2" x="-4%" y="-4%" width="108%" height="116%">
      <feDropShadow dx="0" dy="2" stdDeviation="8" flood-color="rgba(0,0,0,0.10)"/>
      <feDropShadow dx="0" dy="10" stdDeviation="20" flood-color="rgba(0,0,0,0.08)"/>
    </filter>
    <clipPath id="heroClip">
      <rect width="1200" height="100"/>
    </clipPath>
  </defs>

  <!-- Background -->
  <rect width="1200" height="1176" fill="#f5f5f7"/>

  <!-- ============================================ -->
  <!-- HERO HEADER (y=0, h=100) -->
  <!-- ============================================ -->
  <rect width="1200" height="100" fill="url(#heroGrad)" clip-path="url(#heroClip)"/>
  <circle cx="1100" cy="20" r="120" fill="#536DFE" opacity="0.07"/>
  <circle cx="1140" cy="80" r="70" fill="#7C4DFF" opacity="0.05"/>
  <circle cx="50" cy="80" r="40" fill="#00E5FF" opacity="0.04"/>

  <!-- Date chip -->
  <rect x="40" y="12" width="200" height="24" rx="12" fill="rgba(255,255,255,0.1)"/>
  <text x="56" y="29" font-size="12" font-weight="500" fill="rgba(255,255,255,0.8)">2026-03-26 Thursday</text>

  <!-- Title + subtitle -->
  <text x="40" y="52" font-size="22" font-weight="800" fill="#FFFFFF" letter-spacing="-0.5">Daily Insights</text>
  <text x="40" y="74" font-size="13" font-weight="400" fill="rgba(255,255,255,0.6)">AWS ANS受験 &amp; PRレビュー &amp; AI品質保証</text>

  <!-- Stats badges -->
  <g transform="translate(860, 68)">
    <rect width="84" height="22" rx="11" fill="url(#accentGrad)" opacity="0.9"/>
    <text x="12" y="16" font-size="13" font-weight="800" fill="#FFFFFF">3</text>
    <text x="28" y="15" font-size="10" font-weight="500" fill="rgba(255,255,255,0.85)">TASKS</text>
    <rect x="92" width="108" height="22" rx="11" fill="url(#sunGrad)" opacity="0.9"/>
    <text x="104" y="16" font-size="13" font-weight="800" fill="#FFFFFF">3</text>
    <text x="120" y="15" font-size="10" font-weight="500" fill="rgba(255,255,255,0.9)">INSIGHTS</text>
  </g>

  <!-- ============================================ -->
  <!-- ROW 1: ACTIVITIES (left) + INSIGHTS (right) -->
  <!-- row1_y=124, row1_height=384 -->
  <!-- ============================================ -->

  <!-- ACTIVITIES Card -->
  <rect x="24" y="124" width="564" height="384" rx="16" fill="#FFFFFF" filter="url(#elevation1)"/>
  <rect x="24" y="124" width="564" height="4" rx="2" fill="url(#accentGrad)"/>
  <text x="48" y="160" font-size="11" font-weight="800" fill="#536DFE" letter-spacing="1.5">ACTIVITIES</text>
  <text x="48" y="182" font-size="18" font-weight="800" fill="#0a0a1a" letter-spacing="-0.3">実施事項</text>
  <text x="564" y="182" text-anchor="end" font-size="12" font-weight="600" fill="#536DFE">x3</text>

  <g transform="translate(48, 200)">
    <!-- Activity 1 -->
    <rect x="0" y="0" width="520" height="40" rx="10" fill="#EDE7F6"/>
    <rect x="12" y="12" width="16" height="16" rx="4" fill="url(#accentGrad)"/>
    <text x="38" y="26" font-size="14" font-weight="600" fill="#0a0a1a">AWS ANS 受験・ネットワーク基盤の深層理解</text>

    <!-- Activity 2 -->
    <rect x="0" y="48" width="520" height="40" rx="10" fill="#EDE7F6"/>
    <rect x="12" y="60" width="16" height="16" rx="4" fill="url(#accentGrad)"/>
    <text x="38" y="74" font-size="14" font-weight="600" fill="#0a0a1a">AI活用PRレビューの実践と精度検証</text>

    <!-- Activity 3 -->
    <rect x="0" y="96" width="520" height="40" rx="10" fill="#EDE7F6"/>
    <rect x="12" y="108" width="16" height="16" rx="4" fill="url(#accentGrad)"/>
    <text x="38" y="122" font-size="14" font-weight="600" fill="#0a0a1a">BDD E2Eテスト導入の検討</text>
  </g>

  <!-- INSIGHTS Card -->
  <rect x="612" y="124" width="564" height="384" rx="16" fill="#FFFFFF" filter="url(#elevation1)"/>
  <rect x="612" y="124" width="564" height="4" rx="2" fill="url(#sunGrad)"/>
  <text x="636" y="160" font-size="11" font-weight="800" fill="#FF6D00" letter-spacing="1.5">INSIGHTS</text>
  <text x="636" y="182" font-size="18" font-weight="800" fill="#0a0a1a" letter-spacing="-0.3">気づき・学び</text>
  <text x="1152" y="182" text-anchor="end" font-size="12" font-weight="600" fill="#FF6D00">x3</text>

  <g transform="translate(636, 200)">
    <!-- Insight 1: KEY INSIGHT (Von Restorff) -->
    <g transform="translate(0, 0)">
      <rect x="0" y="0" width="516" height="88" rx="12" fill="url(#keyInsightBg)" filter="url(#elevation1)"/>
      <rect x="0" y="0" width="6" height="88" rx="3" fill="url(#warmGrad)"/>
      <text x="16" y="24" font-size="14" font-weight="800" fill="#BF360C">AI時代の品質保証の再定義</text>
      <text x="16" y="44" font-size="12" font-weight="500" fill="#4E342E">AIがPRレビューを担える今、</text>
      <text x="16" y="62" font-size="12" font-weight="500" fill="#4E342E">人間の品質保証の役割が問い直される</text>
      <rect x="16" y="72" width="80" height="12" rx="6" fill="url(#warmGrad)"/>
      <text x="56" y="82" text-anchor="middle" font-size="8" font-weight="800" fill="#FFFFFF">KEY INSIGHT</text>
    </g>

    <!-- Insight 2 -->
    <g transform="translate(0, 100)">
      <rect x="0" y="0" width="516" height="88" rx="12" fill="#FFF3E0"/>
      <rect x="0" y="0" width="4" height="88" rx="2" fill="url(#sunGrad)"/>
      <text x="16" y="24" font-size="14" font-weight="700" fill="#E65100">ユースケース→設計の自動化</text>
      <text x="16" y="44" font-size="12" fill="#5D4037">実ユースケースからシステム設計への</text>
      <text x="16" y="62" font-size="12" fill="#5D4037">プロセス自動化が次のフロンティア</text>
      <rect x="16" y="72" width="56" height="12" rx="6" fill="#FF6D00"/>
      <text x="44" y="82" text-anchor="middle" font-size="8" font-weight="700" fill="#FFFFFF">PROCESS</text>
    </g>

    <!-- Insight 3 -->
    <g transform="translate(0, 200)">
      <rect x="0" y="0" width="516" height="88" rx="12" fill="#FFF3E0"/>
      <rect x="0" y="0" width="4" height="88" rx="2" fill="url(#sunGrad)"/>
      <text x="16" y="24" font-size="14" font-weight="700" fill="#E65100">AI対話ログの集約が競争力に</text>
      <text x="16" y="44" font-size="12" fill="#5D4037">データの質と量が勝負の鍵。</text>
      <text x="16" y="62" font-size="12" fill="#5D4037">AI対話を一箇所に集約しナレッジ化する</text>
      <rect x="16" y="72" width="40" height="12" rx="6" fill="#FF6D00"/>
      <text x="36" y="82" text-anchor="middle" font-size="8" font-weight="700" fill="#FFFFFF">DATA</text>
    </g>
  </g>

  <!-- ============================================ -->
  <!-- ROW 2: CHALLENGES (left) + NEXT STEPS (right) -->
  <!-- row2_y=532, row2_height=220 -->
  <!-- ============================================ -->

  <!-- CHALLENGES Card -->
  <rect x="24" y="532" width="564" height="220" rx="16" fill="#FFFFFF" filter="url(#elevation1)"/>
  <rect x="24" y="532" width="564" height="4" rx="2" fill="url(#dangerGrad)"/>
  <text x="48" y="568" font-size="11" font-weight="800" fill="#FF1744" letter-spacing="1.5">CHALLENGES</text>
  <text x="48" y="590" font-size="18" font-weight="800" fill="#0a0a1a" letter-spacing="-0.3">課題・ブロッカー</text>
  <text x="564" y="590" text-anchor="end" font-size="12" font-weight="600" fill="#FF1744">x2</text>

  <g transform="translate(48, 608)">
    <!-- Challenge 1 -->
    <g transform="translate(0, 0)">
      <rect x="0" y="0" width="520" height="44" rx="10" fill="#FFEBEE"/>
      <rect x="0" y="0" width="4" height="44" rx="2" fill="#FF1744"/>
      <text x="16" y="27" font-size="14" font-weight="600" fill="#B71C1C">MLS学習の開始が未着手</text>
      <rect x="420" y="12" width="80" height="22" rx="11" fill="#FF1744"/>
      <text x="460" y="27" text-anchor="middle" font-size="10" font-weight="700" fill="#FFFFFF">未着手</text>
    </g>

    <!-- Challenge 2 -->
    <g transform="translate(0, 54)">
      <rect x="0" y="0" width="520" height="44" rx="10" fill="#FFEBEE"/>
      <rect x="0" y="0" width="4" height="44" rx="2" fill="#FF1744"/>
      <text x="16" y="27" font-size="14" font-weight="600" fill="#B71C1C">3月末までのタイトなスケジュール</text>
      <rect x="420" y="12" width="80" height="22" rx="11" fill="#536DFE"/>
      <text x="460" y="27" text-anchor="middle" font-size="10" font-weight="700" fill="#FFFFFF">対応中</text>
    </g>
  </g>

  <!-- NEXT STEPS Card -->
  <rect x="612" y="532" width="564" height="220" rx="16" fill="#FFFFFF" filter="url(#elevation1)"/>
  <rect x="612" y="532" width="564" height="4" rx="2" fill="url(#greenGrad)"/>
  <text x="636" y="568" font-size="11" font-weight="800" fill="#00C853" letter-spacing="1.5">NEXT STEPS</text>
  <text x="636" y="590" font-size="18" font-weight="800" fill="#0a0a1a" letter-spacing="-0.3">次の一手</text>

  <g transform="translate(636, 608)">
    <!-- P1 -->
    <g transform="translate(0, 0)">
      <rect x="0" y="0" width="516" height="36" rx="8" fill="#FFEBEE"/>
      <rect x="8" y="8" width="10" height="20" rx="5" fill="#FF1744"/>
      <text x="26" y="14" font-size="11" font-weight="800" fill="#FF1744">P1</text>
      <text x="52" y="24" font-size="14" font-weight="600" fill="#0a0a1a">AWS資格(ANS・MLS)を3月中にやり切る</text>
    </g>

    <!-- P2 -->
    <g transform="translate(0, 44)">
      <rect x="0" y="0" width="516" height="36" rx="8" fill="#FFF3E0"/>
      <rect x="8" y="8" width="10" height="20" rx="5" fill="#FF6D00"/>
      <text x="26" y="14" font-size="11" font-weight="800" fill="#FF6D00">P2</text>
      <text x="52" y="24" font-size="14" font-weight="600" fill="#0a0a1a">Claude・Azure学習計画を具体化</text>
    </g>

    <!-- P3 -->
    <g transform="translate(0, 88)">
      <rect x="0" y="0" width="516" height="36" rx="8" fill="#E8F5E9"/>
      <rect x="8" y="8" width="10" height="20" rx="5" fill="#00C853"/>
      <text x="26" y="14" font-size="11" font-weight="800" fill="#00C853">P3</text>
      <text x="52" y="24" font-size="14" font-weight="600" fill="#0a0a1a">AI対話ログ集約基盤の調査・検討</text>
    </g>
  </g>

  <!-- ============================================ -->
  <!-- KEY THEME BANNER (y=776, h=120) -->
  <!-- ============================================ -->
  <rect x="24" y="776" width="1152" height="120" rx="20" fill="url(#peakGrad)" filter="url(#elevation2)"/>
  <circle cx="1100" cy="812" r="60" fill="#7C4DFF" opacity="0.12"/>
  <circle cx="1060" cy="852" r="40" fill="#536DFE" opacity="0.08"/>
  <text x="56" y="810" font-size="11" font-weight="800" fill="rgba(255,255,255,0.5)" letter-spacing="2.5">TODAY'S KEY THEME</text>
  <text x="56" y="840" font-size="22" font-weight="800" fill="#FFFFFF" letter-spacing="-0.5">AI協働時代の品質保証とデータ戦略</text>
  <text x="56" y="868" font-size="13" font-weight="400" fill="rgba(255,255,255,0.6)">AIがレビューする時代に、人間は何を保証するのか。データ集約が次の競争力になる。</text>

  <!-- ============================================ -->
  <!-- GROWTH PATH (y=920, h=192) -->
  <!-- ============================================ -->
  <rect x="24" y="920" width="1152" height="192" rx="20" fill="#FFFFFF" filter="url(#elevation2)"/>
  <text x="56" y="956" font-size="11" font-weight="800" fill="#536DFE" letter-spacing="1.5">GROWTH PATH</text>
  <text x="56" y="978" font-size="18" font-weight="800" fill="#0a0a1a" letter-spacing="-0.3">AWS資格ロードマップ 2026 Q1-Q2</text>

  <!-- Progress bar -->
  <g transform="translate(56, 996)">
    <rect x="0" y="16" width="1100" height="10" rx="5" fill="#E8EAF6"/>
    <rect x="0" y="16" width="440" height="10" rx="5" fill="url(#progressGrad)"/>

    <!-- ANS marker (achieved) -->
    <circle cx="367" cy="21" r="16" fill="url(#accentGrad)"/>
    <text x="367" y="26" text-anchor="middle" font-size="9" font-weight="800" fill="#FFFFFF">ANS</text>
    <text x="367" y="52" text-anchor="middle" font-size="10" font-weight="600" fill="#78909C">受験済</text>

    <!-- MLS marker (target) -->
    <circle cx="550" cy="21" r="16" fill="#FFFFFF" stroke="url(#greenGrad)" stroke-width="3" stroke-dasharray="5,3"/>
    <text x="550" y="26" text-anchor="middle" font-size="9" font-weight="700" fill="#00C853">MLS</text>
    <text x="550" y="52" text-anchor="middle" font-size="10" font-weight="600" fill="#78909C">3月末</text>

    <!-- Claude marker (future) -->
    <circle cx="733" cy="21" r="16" fill="#FFFFFF" stroke="url(#accentGrad)" stroke-width="3" stroke-dasharray="5,3"/>
    <text x="733" y="26" text-anchor="middle" font-size="9" font-weight="700" fill="#536DFE">Claude</text>
    <text x="733" y="52" text-anchor="middle" font-size="10" font-weight="600" fill="#78909C">4月〜</text>

    <!-- Azure marker (future) -->
    <circle cx="917" cy="21" r="16" fill="#FFFFFF" stroke="url(#tealGrad)" stroke-width="3" stroke-dasharray="5,3"/>
    <text x="917" y="26" text-anchor="middle" font-size="9" font-weight="700" fill="#00B0FF">Azure</text>
    <text x="917" y="52" text-anchor="middle" font-size="10" font-weight="600" fill="#78909C">4月〜</text>
  </g>

  <!-- Lever tags -->
  <g transform="translate(56, 1088)">
    <text x="0" y="14" font-size="12" font-weight="600" fill="#78909C">Key Levers:</text>
    <rect x="96" y="0" width="72" height="24" rx="12" fill="url(#accentGrad)"/>
    <text x="132" y="16" text-anchor="middle" font-size="11" font-weight="700" fill="#FFFFFF">AWS</text>
    <rect x="176" y="0" width="72" height="24" rx="12" fill="url(#sunGrad)"/>
    <text x="212" y="16" text-anchor="middle" font-size="11" font-weight="700" fill="#FFFFFF">Claude</text>
    <rect x="256" y="0" width="72" height="24" rx="12" fill="url(#tealGrad)"/>
    <text x="292" y="16" text-anchor="middle" font-size="11" font-weight="700" fill="#FFFFFF">Azure</text>
  </g>

  <!-- ============================================ -->
  <!-- FOOTER -->
  <!-- ============================================ -->
  <text x="600" y="1152" text-anchor="middle" font-size="11" font-weight="400" fill="#B0BEC5" letter-spacing="0.5">LifeAI Daily Insights — 2026-03-26</text>
</svg>
